<mxfile host="65bd71144e" pages="2">
    <diagram id="LRWIJSUy15dSj3HW8Kv9" name="general architecture">
        <mxGraphModel dx="3064" dy="1662" grid="1" gridSize="10" guides="1" tooltips="1" connect="1" arrows="1" fold="1" page="1" pageScale="1" pageWidth="850" pageHeight="1100" math="0" shadow="0">
            <root>
                <mxCell id="0"/>
                <mxCell id="1" parent="0"/>
                <mxCell id="P1xHpq-xrE6-KQtxR4vC-1" value="Utility" style="rounded=1;whiteSpace=wrap;html=1;fillColor=#dae8fc;strokeColor=#6c8ebf;" parent="1" vertex="1">
                    <mxGeometry x="-1600" y="-980" width="120" height="302" as="geometry"/>
                </mxCell>
                <mxCell id="P1xHpq-xrE6-KQtxR4vC-3" value="Middleware" style="rounded=1;whiteSpace=wrap;html=1;fillColor=#d5e8d4;strokeColor=#82b366;" parent="1" vertex="1">
                    <mxGeometry x="-1360" y="-898" width="280" height="60" as="geometry"/>
                </mxCell>
                <mxCell id="P1xHpq-xrE6-KQtxR4vC-4" value="HAL" style="rounded=1;whiteSpace=wrap;html=1;fillColor=#ffe6cc;strokeColor=#d79b00;" parent="1" vertex="1">
                    <mxGeometry x="-1440" y="-818" width="360" height="60" as="geometry"/>
                </mxCell>
                <mxCell id="P1xHpq-xrE6-KQtxR4vC-6" value="Device driver" style="rounded=1;whiteSpace=wrap;html=1;fillColor=#f8cecc;strokeColor=#b85450;" parent="1" vertex="1">
                    <mxGeometry x="-1450" y="-738" width="370" height="60" as="geometry"/>
                </mxCell>
                <mxCell id="P1xHpq-xrE6-KQtxR4vC-7" value="From framework&lt;div&gt;(configuration)&lt;/div&gt;" style="shape=note2;boundedLbl=1;whiteSpace=wrap;html=1;size=25;verticalAlign=top;align=center;" parent="1" vertex="1">
                    <mxGeometry x="-960" y="-980" width="120" height="60" as="geometry"/>
                </mxCell>
                <mxCell id="P1xHpq-xrE6-KQtxR4vC-12" value="Third party(implementation or integration)" style="shape=note2;boundedLbl=1;whiteSpace=wrap;html=1;size=25;verticalAlign=top;align=center;" parent="1" vertex="1">
                    <mxGeometry x="-960" y="-748" width="150" height="80" as="geometry"/>
                </mxCell>
                <mxCell id="15kII1XaTbI3W1ZtqC0y-1" value="" style="shape=folder;fontStyle=1;spacingTop=10;tabWidth=40;tabHeight=14;tabPosition=left;html=1;whiteSpace=wrap;fillColor=#e1d5e7;strokeColor=#9673a6;" parent="1" vertex="1">
                    <mxGeometry x="-1319" y="-640" width="399" height="120" as="geometry"/>
                </mxCell>
                <mxCell id="15kII1XaTbI3W1ZtqC0y-2" value="Task worker" style="shape=folder;fontStyle=1;spacingTop=10;tabWidth=40;tabHeight=14;tabPosition=left;html=1;whiteSpace=wrap;" parent="1" vertex="1">
                    <mxGeometry x="-1269" y="-590" width="70" height="50" as="geometry"/>
                </mxCell>
                <mxCell id="15kII1XaTbI3W1ZtqC0y-3" value="Data model" style="shape=folder;fontStyle=1;spacingTop=10;tabWidth=40;tabHeight=14;tabPosition=left;html=1;whiteSpace=wrap;" parent="1" vertex="1">
                    <mxGeometry x="-1179" y="-590" width="70" height="50" as="geometry"/>
                </mxCell>
                <mxCell id="15kII1XaTbI3W1ZtqC0y-4" value="Event bus&lt;div&gt;&lt;br&gt;&lt;/div&gt;" style="shape=folder;fontStyle=1;spacingTop=10;tabWidth=40;tabHeight=14;tabPosition=left;html=1;whiteSpace=wrap;verticalAlign=middle;" parent="1" vertex="1">
                    <mxGeometry x="-1099" y="-590" width="70" height="50" as="geometry"/>
                </mxCell>
                <mxCell id="15kII1XaTbI3W1ZtqC0y-5" value="&lt;div&gt;RPC&lt;/div&gt;" style="shape=folder;fontStyle=1;spacingTop=10;tabWidth=40;tabHeight=14;tabPosition=left;html=1;whiteSpace=wrap;verticalAlign=middle;" parent="1" vertex="1">
                    <mxGeometry x="-1014" y="-590" width="70" height="50" as="geometry"/>
                </mxCell>
                <mxCell id="15kII1XaTbI3W1ZtqC0y-11" value="" style="shape=folder;fontStyle=1;spacingTop=10;tabWidth=40;tabHeight=14;tabPosition=left;html=1;whiteSpace=wrap;fillColor=#d5e8d4;strokeColor=#82b366;" parent="1" vertex="1">
                    <mxGeometry x="-1320" y="-480" width="400" height="280" as="geometry"/>
                </mxCell>
                <mxCell id="15kII1XaTbI3W1ZtqC0y-12" value="Internal" style="shape=folder;fontStyle=1;spacingTop=10;tabWidth=40;tabHeight=14;tabPosition=left;html=1;whiteSpace=wrap;" parent="1" vertex="1">
                    <mxGeometry x="-1169.38" y="-365" width="119.38" height="65" as="geometry"/>
                </mxCell>
                <mxCell id="15kII1XaTbI3W1ZtqC0y-13" value="External" style="shape=folder;fontStyle=1;spacingTop=10;tabWidth=40;tabHeight=14;tabPosition=left;html=1;whiteSpace=wrap;" parent="1" vertex="1">
                    <mxGeometry x="-1170" y="-280" width="120" height="65" as="geometry"/>
                </mxCell>
                <mxCell id="15kII1XaTbI3W1ZtqC0y-14" value="" style="shape=folder;fontStyle=1;spacingTop=10;tabWidth=40;tabHeight=14;tabPosition=left;html=1;whiteSpace=wrap;fillColor=#ffe6cc;strokeColor=#d79b00;" parent="1" vertex="1">
                    <mxGeometry x="-1320" y="-160" width="400" height="120" as="geometry"/>
                </mxCell>
                <mxCell id="15kII1XaTbI3W1ZtqC0y-15" value="HAL SPI" style="shape=folder;fontStyle=1;spacingTop=10;tabWidth=40;tabHeight=14;tabPosition=left;html=1;whiteSpace=wrap;" parent="1" vertex="1">
                    <mxGeometry x="-1278.75" y="-130" width="70" height="50" as="geometry"/>
                </mxCell>
                <mxCell id="15kII1XaTbI3W1ZtqC0y-16" value="HAL I2C" style="shape=folder;fontStyle=1;spacingTop=10;tabWidth=40;tabHeight=14;tabPosition=left;html=1;whiteSpace=wrap;" parent="1" vertex="1">
                    <mxGeometry x="-1190" y="-130" width="70" height="50" as="geometry"/>
                </mxCell>
                <mxCell id="15kII1XaTbI3W1ZtqC0y-17" value="HAL UART" style="shape=folder;fontStyle=1;spacingTop=10;tabWidth=40;tabHeight=14;tabPosition=left;html=1;whiteSpace=wrap;" parent="1" vertex="1">
                    <mxGeometry x="-1100" y="-130" width="70" height="50" as="geometry"/>
                </mxCell>
                <mxCell id="15kII1XaTbI3W1ZtqC0y-18" value="" style="shape=folder;fontStyle=1;spacingTop=10;tabWidth=40;tabHeight=14;tabPosition=left;html=1;whiteSpace=wrap;fillColor=#f8cecc;strokeColor=#b85450;" parent="1" vertex="1">
                    <mxGeometry x="-1320" width="400" height="90" as="geometry"/>
                </mxCell>
                <mxCell id="15kII1XaTbI3W1ZtqC0y-19" value="driver" style="shape=folder;fontStyle=1;spacingTop=10;tabWidth=40;tabHeight=14;tabPosition=left;html=1;whiteSpace=wrap;" parent="1" vertex="1">
                    <mxGeometry x="-1278.75" y="30" width="70" height="50" as="geometry"/>
                </mxCell>
                <mxCell id="15kII1XaTbI3W1ZtqC0y-20" value="driver" style="shape=folder;fontStyle=1;spacingTop=10;tabWidth=40;tabHeight=14;tabPosition=left;html=1;whiteSpace=wrap;" parent="1" vertex="1">
                    <mxGeometry x="-1190" y="30" width="70" height="50" as="geometry"/>
                </mxCell>
                <mxCell id="15kII1XaTbI3W1ZtqC0y-21" value="driver" style="shape=folder;fontStyle=1;spacingTop=10;tabWidth=40;tabHeight=14;tabPosition=left;html=1;whiteSpace=wrap;" parent="1" vertex="1">
                    <mxGeometry x="-1095" y="30" width="70" height="50" as="geometry"/>
                </mxCell>
                <mxCell id="6vtoIBtiP7Qtt_uZDNov-2" value="Change from project to project and hardware form hardware" style="shape=note2;boundedLbl=1;whiteSpace=wrap;html=1;size=25;verticalAlign=top;align=center;" parent="1" vertex="1">
                    <mxGeometry x="-1600" y="-20" width="180" height="100" as="geometry"/>
                </mxCell>
                <mxCell id="6vtoIBtiP7Qtt_uZDNov-3" value="" style="endArrow=classic;html=1;rounded=0;exitX=0;exitY=0;exitDx=180;exitDy=62.5;exitPerimeter=0;" parent="1" source="6vtoIBtiP7Qtt_uZDNov-2" target="15kII1XaTbI3W1ZtqC0y-18" edge="1">
                    <mxGeometry width="50" height="50" relative="1" as="geometry">
                        <mxPoint x="-1250" y="-180" as="sourcePoint"/>
                        <mxPoint x="-1200" y="-230" as="targetPoint"/>
                    </mxGeometry>
                </mxCell>
                <mxCell id="6vtoIBtiP7Qtt_uZDNov-4" value="Configure for each project" style="shape=note2;boundedLbl=1;whiteSpace=wrap;html=1;size=25;verticalAlign=top;align=center;" parent="1" vertex="1">
                    <mxGeometry x="-1600" y="-150" width="180" height="70" as="geometry"/>
                </mxCell>
                <mxCell id="6vtoIBtiP7Qtt_uZDNov-5" value="" style="endArrow=classic;html=1;rounded=0;exitX=0;exitY=0;exitDx=180;exitDy=47.5;exitPerimeter=0;" parent="1" source="6vtoIBtiP7Qtt_uZDNov-4" target="15kII1XaTbI3W1ZtqC0y-14" edge="1">
                    <mxGeometry width="50" height="50" relative="1" as="geometry">
                        <mxPoint x="-1250" y="-60" as="sourcePoint"/>
                        <mxPoint x="-1200" y="-110" as="targetPoint"/>
                    </mxGeometry>
                </mxCell>
                <mxCell id="6vtoIBtiP7Qtt_uZDNov-6" value="Configure for each project" style="shape=note2;boundedLbl=1;whiteSpace=wrap;html=1;size=25;verticalAlign=top;align=center;" parent="1" vertex="1">
                    <mxGeometry x="-1600" y="-373" width="180" height="70" as="geometry"/>
                </mxCell>
                <mxCell id="6vtoIBtiP7Qtt_uZDNov-7" value="" style="endArrow=classic;html=1;rounded=0;exitX=0;exitY=0;exitDx=180;exitDy=47.5;exitPerimeter=0;entryX=0;entryY=0;entryDx=0;entryDy=39.5;entryPerimeter=0;" parent="1" source="6vtoIBtiP7Qtt_uZDNov-6" target="15kII1XaTbI3W1ZtqC0y-12" edge="1">
                    <mxGeometry width="50" height="50" relative="1" as="geometry">
                        <mxPoint x="-1250" y="-60" as="sourcePoint"/>
                        <mxPoint x="-1200" y="-110" as="targetPoint"/>
                    </mxGeometry>
                </mxCell>
                <mxCell id="6vtoIBtiP7Qtt_uZDNov-8" value="Integrate for every project. maybe integrate by the framework&amp;nbsp;" style="shape=note2;boundedLbl=1;whiteSpace=wrap;html=1;size=25;verticalAlign=top;align=center;" parent="1" vertex="1">
                    <mxGeometry x="-1600" y="-288" width="180" height="88" as="geometry"/>
                </mxCell>
                <mxCell id="6vtoIBtiP7Qtt_uZDNov-9" value="" style="endArrow=classic;html=1;rounded=0;exitX=0;exitY=0;exitDx=180;exitDy=47.5;exitPerimeter=0;entryX=0;entryY=0;entryDx=0;entryDy=39.5;entryPerimeter=0;" parent="1" source="6vtoIBtiP7Qtt_uZDNov-8" target="15kII1XaTbI3W1ZtqC0y-13" edge="1">
                    <mxGeometry width="50" height="50" relative="1" as="geometry">
                        <mxPoint x="-1250" y="-60" as="sourcePoint"/>
                        <mxPoint x="-1200" y="-110" as="targetPoint"/>
                    </mxGeometry>
                </mxCell>
                <mxCell id="6vtoIBtiP7Qtt_uZDNov-12" value="Configure for each project" style="shape=note2;boundedLbl=1;whiteSpace=wrap;html=1;size=25;verticalAlign=top;align=center;" parent="1" vertex="1">
                    <mxGeometry x="-1600" y="-620" width="180" height="70" as="geometry"/>
                </mxCell>
                <mxCell id="6vtoIBtiP7Qtt_uZDNov-13" value="" style="endArrow=classic;html=1;rounded=0;exitX=0;exitY=0;exitDx=180;exitDy=47.5;exitPerimeter=0;entryX=0;entryY=0;entryDx=0;entryDy=67;entryPerimeter=0;" parent="1" source="6vtoIBtiP7Qtt_uZDNov-12" target="15kII1XaTbI3W1ZtqC0y-1" edge="1">
                    <mxGeometry width="50" height="50" relative="1" as="geometry">
                        <mxPoint x="-1249" y="-280" as="sourcePoint"/>
                        <mxPoint x="-1199" y="-330" as="targetPoint"/>
                    </mxGeometry>
                </mxCell>
                <mxCell id="P1xHpq-xrE6-KQtxR4vC-2" value="Service" style="rounded=1;whiteSpace=wrap;html=1;fillColor=#e1d5e7;strokeColor=#9673a6;" parent="1" vertex="1">
                    <mxGeometry x="-1280" y="-980" width="200" height="60" as="geometry"/>
                </mxCell>
                <mxCell id="2" value="Application" style="rounded=1;whiteSpace=wrap;html=1;" parent="1" vertex="1">
                    <mxGeometry x="-1600" y="-1100" width="520" height="60" as="geometry"/>
                </mxCell>
                <mxCell id="3" value="" style="endArrow=classic;html=1;exitX=0.81;exitY=1.019;exitDx=0;exitDy=0;entryX=0.5;entryY=0;entryDx=0;entryDy=0;exitPerimeter=0;" parent="1" source="2" target="P1xHpq-xrE6-KQtxR4vC-2" edge="1">
                    <mxGeometry width="50" height="50" relative="1" as="geometry">
                        <mxPoint x="-1160" y="-1000" as="sourcePoint"/>
                        <mxPoint x="-1110" y="-930" as="targetPoint"/>
                    </mxGeometry>
                </mxCell>
                <mxCell id="4" value="" style="endArrow=classic;html=1;entryX=0.5;entryY=0;entryDx=0;entryDy=0;exitX=0.113;exitY=1;exitDx=0;exitDy=0;exitPerimeter=0;" parent="1" source="2" target="P1xHpq-xrE6-KQtxR4vC-1" edge="1">
                    <mxGeometry width="50" height="50" relative="1" as="geometry">
                        <mxPoint x="-1740" y="-1000" as="sourcePoint"/>
                        <mxPoint x="-1120" y="-980" as="targetPoint"/>
                    </mxGeometry>
                </mxCell>
                <mxCell id="5" value="" style="endArrow=classic;html=1;entryX=0.142;entryY=-0.015;entryDx=0;entryDy=0;entryPerimeter=0;exitX=0.538;exitY=1.037;exitDx=0;exitDy=0;exitPerimeter=0;" parent="1" source="2" target="P1xHpq-xrE6-KQtxR4vC-3" edge="1">
                    <mxGeometry width="50" height="50" relative="1" as="geometry">
                        <mxPoint x="-1220" y="-800" as="sourcePoint"/>
                        <mxPoint x="-1170" y="-850" as="targetPoint"/>
                    </mxGeometry>
                </mxCell>
                <mxCell id="6" value="" style="endArrow=classic;html=1;exitX=0.38;exitY=1.056;exitDx=0;exitDy=0;exitPerimeter=0;entryX=0.108;entryY=0.041;entryDx=0;entryDy=0;entryPerimeter=0;" parent="1" source="2" target="P1xHpq-xrE6-KQtxR4vC-4" edge="1">
                    <mxGeometry width="50" height="50" relative="1" as="geometry">
                        <mxPoint x="-1220" y="-800" as="sourcePoint"/>
                        <mxPoint x="-1170" y="-850" as="targetPoint"/>
                    </mxGeometry>
                </mxCell>
                <mxCell id="9" value="" style="endArrow=classic;html=1;dashed=1;exitX=0;exitY=0.5;exitDx=0;exitDy=0;exitPerimeter=0;entryX=1;entryY=0.5;entryDx=0;entryDy=0;" parent="1" source="P1xHpq-xrE6-KQtxR4vC-7" target="P1xHpq-xrE6-KQtxR4vC-2" edge="1">
                    <mxGeometry width="50" height="50" relative="1" as="geometry">
                        <mxPoint x="-1220" y="-800" as="sourcePoint"/>
                        <mxPoint x="-1170" y="-850" as="targetPoint"/>
                    </mxGeometry>
                </mxCell>
                <mxCell id="10" value="" style="endArrow=classic;html=1;dashed=1;entryX=1;entryY=0.5;entryDx=0;entryDy=0;" parent="1" target="P1xHpq-xrE6-KQtxR4vC-4" edge="1">
                    <mxGeometry width="50" height="50" relative="1" as="geometry">
                        <mxPoint x="-960" y="-950" as="sourcePoint"/>
                        <mxPoint x="-1070" y="-940" as="targetPoint"/>
                    </mxGeometry>
                </mxCell>
                <mxCell id="11" value="" style="endArrow=classic;html=1;dashed=1;entryX=1;entryY=0.5;entryDx=0;entryDy=0;exitX=0;exitY=0.5;exitDx=0;exitDy=0;exitPerimeter=0;" parent="1" source="P1xHpq-xrE6-KQtxR4vC-12" target="P1xHpq-xrE6-KQtxR4vC-6" edge="1">
                    <mxGeometry width="50" height="50" relative="1" as="geometry">
                        <mxPoint x="-950" y="-940" as="sourcePoint"/>
                        <mxPoint x="-1070" y="-778" as="targetPoint"/>
                    </mxGeometry>
                </mxCell>
                <mxCell id="12" value="" style="endArrow=classic;html=1;dashed=1;entryX=1;entryY=0.5;entryDx=0;entryDy=0;exitX=0;exitY=0.5;exitDx=0;exitDy=0;exitPerimeter=0;" parent="1" source="P1xHpq-xrE6-KQtxR4vC-12" target="P1xHpq-xrE6-KQtxR4vC-3" edge="1">
                    <mxGeometry width="50" height="50" relative="1" as="geometry">
                        <mxPoint x="-960" y="-710" as="sourcePoint"/>
                        <mxPoint x="-1070" y="-698" as="targetPoint"/>
                    </mxGeometry>
                </mxCell>
                <mxCell id="15kII1XaTbI3W1ZtqC0y-7" value="Common RTOS API" style="shape=folder;fontStyle=1;spacingTop=10;tabWidth=40;tabHeight=14;tabPosition=left;html=1;whiteSpace=wrap;" parent="1" vertex="1">
                    <mxGeometry x="-1286.3799999999999" y="-440" width="70" height="50" as="geometry"/>
                </mxCell>
                <mxCell id="15kII1XaTbI3W1ZtqC0y-8" value="Common CAN API" style="shape=folder;fontStyle=1;spacingTop=10;tabWidth=40;tabHeight=14;tabPosition=left;html=1;whiteSpace=wrap;" parent="1" vertex="1">
                    <mxGeometry x="-1197.6299999999999" y="-440" width="70" height="50" as="geometry"/>
                </mxCell>
                <mxCell id="15kII1XaTbI3W1ZtqC0y-9" value="Common FS API" style="shape=folder;fontStyle=1;spacingTop=10;tabWidth=40;tabHeight=14;tabPosition=left;html=1;whiteSpace=wrap;" parent="1" vertex="1">
                    <mxGeometry x="-1117.6299999999999" y="-440" width="70" height="50" as="geometry"/>
                </mxCell>
                <mxCell id="15kII1XaTbI3W1ZtqC0y-10" value="Common Network API" style="shape=folder;fontStyle=1;spacingTop=10;tabWidth=40;tabHeight=14;tabPosition=left;html=1;whiteSpace=wrap;" parent="1" vertex="1">
                    <mxGeometry x="-1032.6299999999999" y="-440" width="80" height="50" as="geometry"/>
                </mxCell>
                <mxCell id="13" value="" style="endArrow=classic;html=1;rounded=0;exitX=0;exitY=0;exitDx=180;exitDy=47.5;exitPerimeter=0;entryX=0;entryY=0;entryDx=0;entryDy=23;entryPerimeter=0;" parent="1" source="6vtoIBtiP7Qtt_uZDNov-6" target="15kII1XaTbI3W1ZtqC0y-7" edge="1">
                    <mxGeometry width="50" height="50" relative="1" as="geometry">
                        <mxPoint x="-1410" y="-562" as="sourcePoint"/>
                        <mxPoint x="-1309" y="-563" as="targetPoint"/>
                    </mxGeometry>
                </mxCell>
            </root>
        </mxGraphModel>
    </diagram>
    <diagram name="detail architecture" id="PjaPGXbB1nXkiQnc7hHO">
        <mxGraphModel dx="2214" dy="1662" grid="1" gridSize="10" guides="1" tooltips="1" connect="1" arrows="1" fold="1" page="1" pageScale="1" pageWidth="850" pageHeight="1100" math="0" shadow="0">
            <root>
                <mxCell id="0"/>
                <mxCell id="1" parent="0"/>
                <mxCell id="14h0KyfkH0kQeiESOkpt-46" value="" style="rounded=1;whiteSpace=wrap;html=1;fillColor=#ffe6cc;strokeColor=#d79b00;" parent="1" vertex="1">
                    <mxGeometry x="20" y="431" width="800" height="159" as="geometry"/>
                </mxCell>
                <mxCell id="14h0KyfkH0kQeiESOkpt-43" value="" style="rounded=1;whiteSpace=wrap;html=1;fillColor=#d5e8d4;strokeColor=#82b366;" parent="1" vertex="1">
                    <mxGeometry x="-400" y="80" width="1050" height="330" as="geometry"/>
                </mxCell>
                <mxCell id="14h0KyfkH0kQeiESOkpt-41" value="" style="rounded=1;whiteSpace=wrap;html=1;fillColor=#e1d5e7;strokeColor=#9673a6;" parent="1" vertex="1">
                    <mxGeometry x="-400" y="-40" width="1050" height="110" as="geometry"/>
                </mxCell>
                <mxCell id="14h0KyfkH0kQeiESOkpt-39" value="" style="rounded=1;whiteSpace=wrap;html=1;fillColor=#dae8fc;strokeColor=#6c8ebf;arcSize=20;" parent="1" vertex="1">
                    <mxGeometry x="820" y="100" width="300" height="290" as="geometry"/>
                </mxCell>
                <mxCell id="14h0KyfkH0kQeiESOkpt-1" value="HAL" style="rounded=1;whiteSpace=wrap;html=1;" parent="1" vertex="1">
                    <mxGeometry x="40" y="481" width="760" height="60" as="geometry"/>
                </mxCell>
                <mxCell id="14h0KyfkH0kQeiESOkpt-2" value="MCU vendor A" style="rounded=1;whiteSpace=wrap;html=1;fillColor=#f8cecc;strokeColor=#b85450;" parent="1" vertex="1">
                    <mxGeometry x="35" y="680" width="125" height="60" as="geometry"/>
                </mxCell>
                <mxCell id="14h0KyfkH0kQeiESOkpt-3" value="MCU vendor B" style="rounded=1;whiteSpace=wrap;html=1;fillColor=#f8cecc;strokeColor=#b85450;" parent="1" vertex="1">
                    <mxGeometry x="200" y="680" width="120" height="60" as="geometry"/>
                </mxCell>
                <mxCell id="14h0KyfkH0kQeiESOkpt-4" value="MCU vendor C" style="rounded=1;whiteSpace=wrap;html=1;fillColor=#f8cecc;strokeColor=#b85450;" parent="1" vertex="1">
                    <mxGeometry x="360" y="680" width="120" height="60" as="geometry"/>
                </mxCell>
                <mxCell id="14h0KyfkH0kQeiESOkpt-5" value="MCU vendor D" style="rounded=1;whiteSpace=wrap;html=1;fillColor=#f8cecc;strokeColor=#b85450;" parent="1" vertex="1">
                    <mxGeometry x="520" y="680" width="120" height="60" as="geometry"/>
                </mxCell>
                <mxCell id="14h0KyfkH0kQeiESOkpt-6" value="MCU vendor E" style="rounded=1;whiteSpace=wrap;html=1;fillColor=#f8cecc;strokeColor=#b85450;" parent="1" vertex="1">
                    <mxGeometry x="670" y="680" width="120" height="60" as="geometry"/>
                </mxCell>
                <mxCell id="14h0KyfkH0kQeiESOkpt-7" value="PHY HAL" style="rounded=1;whiteSpace=wrap;html=1;" parent="1" vertex="1">
                    <mxGeometry x="520" y="451" width="120" height="60" as="geometry"/>
                </mxCell>
                <mxCell id="14h0KyfkH0kQeiESOkpt-8" value="Network stack" style="rounded=1;whiteSpace=wrap;html=1;" parent="1" vertex="1">
                    <mxGeometry x="520" y="220" width="120" height="180" as="geometry"/>
                </mxCell>
                <mxCell id="14h0KyfkH0kQeiESOkpt-10" value="Use" style="endArrow=open;endSize=12;dashed=1;html=1;rounded=0;exitX=0.5;exitY=1;exitDx=0;exitDy=0;" parent="1" source="14h0KyfkH0kQeiESOkpt-8" target="14h0KyfkH0kQeiESOkpt-7" edge="1">
                    <mxGeometry width="160" relative="1" as="geometry">
                        <mxPoint x="320" y="440" as="sourcePoint"/>
                        <mxPoint x="480" y="440" as="targetPoint"/>
                    </mxGeometry>
                </mxCell>
                <mxCell id="14h0KyfkH0kQeiESOkpt-11" value="Logging" style="rounded=1;whiteSpace=wrap;html=1;" parent="1" vertex="1">
                    <mxGeometry x="840" y="200" width="120" height="180" as="geometry"/>
                </mxCell>
                <mxCell id="14h0KyfkH0kQeiESOkpt-12" value="UART HAL" style="rounded=1;whiteSpace=wrap;html=1;" parent="1" vertex="1">
                    <mxGeometry x="680" y="451" width="120" height="60" as="geometry"/>
                </mxCell>
                <mxCell id="14h0KyfkH0kQeiESOkpt-15" value="SPI HAL" style="rounded=1;whiteSpace=wrap;html=1;" parent="1" vertex="1">
                    <mxGeometry x="40" y="441" width="120" height="60" as="geometry"/>
                </mxCell>
                <mxCell id="14h0KyfkH0kQeiESOkpt-16" value="Flash driver" style="rounded=1;whiteSpace=wrap;html=1;" parent="1" vertex="1">
                    <mxGeometry x="38.75" y="340" width="122.5" height="60" as="geometry"/>
                </mxCell>
                <mxCell id="14h0KyfkH0kQeiESOkpt-17" value="I2C HAL" style="rounded=1;whiteSpace=wrap;html=1;" parent="1" vertex="1">
                    <mxGeometry x="280" y="441" width="120" height="60" as="geometry"/>
                </mxCell>
                <mxCell id="14h0KyfkH0kQeiESOkpt-18" value="EEPROM Driver" style="rounded=1;whiteSpace=wrap;html=1;" parent="1" vertex="1">
                    <mxGeometry x="200" y="220" width="120" height="180" as="geometry"/>
                </mxCell>
                <mxCell id="14h0KyfkH0kQeiESOkpt-20" value="Use" style="endArrow=open;endSize=12;dashed=1;html=1;rounded=0;exitX=0.5;exitY=1;exitDx=0;exitDy=0;" parent="1" source="14h0KyfkH0kQeiESOkpt-16" target="14h0KyfkH0kQeiESOkpt-15" edge="1">
                    <mxGeometry x="0.25" width="160" relative="1" as="geometry">
                        <mxPoint x="190" y="230" as="sourcePoint"/>
                        <mxPoint x="190" y="470" as="targetPoint"/>
                        <mxPoint as="offset"/>
                    </mxGeometry>
                </mxCell>
                <mxCell id="14h0KyfkH0kQeiESOkpt-21" value="Use" style="endArrow=open;endSize=12;dashed=1;html=1;rounded=0;exitX=0.5;exitY=1;exitDx=0;exitDy=0;entryX=0.25;entryY=0;entryDx=0;entryDy=0;" parent="1" source="14h0KyfkH0kQeiESOkpt-18" target="14h0KyfkH0kQeiESOkpt-17" edge="1">
                    <mxGeometry x="0.25" width="160" relative="1" as="geometry">
                        <mxPoint x="110" y="410" as="sourcePoint"/>
                        <mxPoint x="110" y="450" as="targetPoint"/>
                        <mxPoint as="offset"/>
                        <Array as="points">
                            <mxPoint x="260" y="420"/>
                            <mxPoint x="310" y="420"/>
                        </Array>
                    </mxGeometry>
                </mxCell>
                <mxCell id="14h0KyfkH0kQeiESOkpt-22" value="File system" style="rounded=1;whiteSpace=wrap;html=1;" parent="1" vertex="1">
                    <mxGeometry x="41.25" y="220" width="120" height="60" as="geometry"/>
                </mxCell>
                <mxCell id="14h0KyfkH0kQeiESOkpt-23" value="Use" style="endArrow=open;endSize=12;dashed=1;html=1;rounded=0;exitX=0.5;exitY=1;exitDx=0;exitDy=0;" parent="1" source="14h0KyfkH0kQeiESOkpt-22" target="14h0KyfkH0kQeiESOkpt-16" edge="1">
                    <mxGeometry width="160" relative="1" as="geometry">
                        <mxPoint x="320" y="190" as="sourcePoint"/>
                        <mxPoint x="480" y="190" as="targetPoint"/>
                    </mxGeometry>
                </mxCell>
                <mxCell id="14h0KyfkH0kQeiESOkpt-25" value="CAN Driver" style="rounded=1;whiteSpace=wrap;html=1;" parent="1" vertex="1">
                    <mxGeometry x="-100" y="220" width="120" height="180" as="geometry"/>
                </mxCell>
                <mxCell id="14h0KyfkH0kQeiESOkpt-26" value="Use" style="endArrow=open;endSize=12;dashed=1;html=1;rounded=0;exitX=0.5;exitY=1;exitDx=0;exitDy=0;entryX=0;entryY=0.5;entryDx=0;entryDy=0;" parent="1" source="14h0KyfkH0kQeiESOkpt-25" target="14h0KyfkH0kQeiESOkpt-15" edge="1">
                    <mxGeometry x="-0.3333" width="160" relative="1" as="geometry">
                        <mxPoint x="111" y="290" as="sourcePoint"/>
                        <mxPoint x="110" y="350" as="targetPoint"/>
                        <Array as="points">
                            <mxPoint x="-40" y="470"/>
                        </Array>
                        <mxPoint as="offset"/>
                    </mxGeometry>
                </mxCell>
                <mxCell id="14h0KyfkH0kQeiESOkpt-27" value="Sensor Driver" style="rounded=1;whiteSpace=wrap;html=1;" parent="1" vertex="1">
                    <mxGeometry x="360" y="220" width="120" height="180" as="geometry"/>
                </mxCell>
                <mxCell id="14h0KyfkH0kQeiESOkpt-28" value="Use" style="endArrow=open;endSize=12;dashed=1;html=1;rounded=0;exitX=0.5;exitY=1;exitDx=0;exitDy=0;entryX=0.75;entryY=0;entryDx=0;entryDy=0;" parent="1" source="14h0KyfkH0kQeiESOkpt-27" target="14h0KyfkH0kQeiESOkpt-17" edge="1">
                    <mxGeometry width="160" relative="1" as="geometry">
                        <mxPoint x="320" y="360" as="sourcePoint"/>
                        <mxPoint x="480" y="360" as="targetPoint"/>
                        <Array as="points">
                            <mxPoint x="420" y="420"/>
                            <mxPoint x="370" y="420"/>
                        </Array>
                    </mxGeometry>
                </mxCell>
                <mxCell id="14h0KyfkH0kQeiESOkpt-29" value="Common Filesystem API" style="rounded=1;whiteSpace=wrap;html=1;" parent="1" vertex="1">
                    <mxGeometry x="41.25" y="100" width="120" height="60" as="geometry"/>
                </mxCell>
                <mxCell id="14h0KyfkH0kQeiESOkpt-30" value="Common CAN API" style="rounded=1;whiteSpace=wrap;html=1;" parent="1" vertex="1">
                    <mxGeometry x="-100" y="100" width="120" height="60" as="geometry"/>
                </mxCell>
                <mxCell id="14h0KyfkH0kQeiESOkpt-31" value="Common Network API" style="rounded=1;whiteSpace=wrap;html=1;" parent="1" vertex="1">
                    <mxGeometry x="510" y="100" width="120" height="60" as="geometry"/>
                </mxCell>
                <mxCell id="14h0KyfkH0kQeiESOkpt-33" value="State machine" style="rounded=1;whiteSpace=wrap;html=1;" parent="1" vertex="1">
                    <mxGeometry x="980" y="190" width="120" height="40" as="geometry"/>
                </mxCell>
                <mxCell id="14h0KyfkH0kQeiESOkpt-34" value="Queue" style="rounded=1;whiteSpace=wrap;html=1;" parent="1" vertex="1">
                    <mxGeometry x="980" y="240" width="120" height="40" as="geometry"/>
                </mxCell>
                <mxCell id="14h0KyfkH0kQeiESOkpt-35" value="Ring buffer" style="rounded=1;whiteSpace=wrap;html=1;" parent="1" vertex="1">
                    <mxGeometry x="980" y="290" width="120" height="40" as="geometry"/>
                </mxCell>
                <mxCell id="14h0KyfkH0kQeiESOkpt-36" value="Stack" style="rounded=1;whiteSpace=wrap;html=1;" parent="1" vertex="1">
                    <mxGeometry x="980" y="340" width="120" height="40" as="geometry"/>
                </mxCell>
                <mxCell id="14h0KyfkH0kQeiESOkpt-38" value="Common Logging API" style="rounded=1;whiteSpace=wrap;html=1;" parent="1" vertex="1">
                    <mxGeometry x="840" y="120" width="120" height="60" as="geometry"/>
                </mxCell>
                <mxCell id="14h0KyfkH0kQeiESOkpt-48" value="RTOS B" style="rounded=1;whiteSpace=wrap;html=1;" parent="1" vertex="1">
                    <mxGeometry x="-250" y="220" width="120" height="180" as="geometry"/>
                </mxCell>
                <mxCell id="14h0KyfkH0kQeiESOkpt-49" value="RTOS A" style="rounded=1;whiteSpace=wrap;html=1;" parent="1" vertex="1">
                    <mxGeometry x="-390" y="220" width="120" height="180" as="geometry"/>
                </mxCell>
                <mxCell id="14h0KyfkH0kQeiESOkpt-50" value="Common RTOS API" style="rounded=1;whiteSpace=wrap;html=1;" parent="1" vertex="1">
                    <mxGeometry x="-390" y="100" width="260" height="60" as="geometry"/>
                </mxCell>
                <mxCell id="14h0KyfkH0kQeiESOkpt-52" value="Task worker" style="rounded=1;whiteSpace=wrap;html=1;" parent="1" vertex="1">
                    <mxGeometry x="-390" y="-10" width="200" height="60" as="geometry"/>
                </mxCell>
                <mxCell id="14h0KyfkH0kQeiESOkpt-53" value="Data model" style="rounded=1;whiteSpace=wrap;html=1;" parent="1" vertex="1">
                    <mxGeometry x="-180" y="-10" width="200" height="60" as="geometry"/>
                </mxCell>
                <mxCell id="14h0KyfkH0kQeiESOkpt-54" value="Event bus" style="rounded=1;whiteSpace=wrap;html=1;" parent="1" vertex="1">
                    <mxGeometry x="35" y="-10" width="198.75" height="60" as="geometry"/>
                </mxCell>
                <mxCell id="14h0KyfkH0kQeiESOkpt-55" value="RPC" style="rounded=1;whiteSpace=wrap;html=1;" parent="1" vertex="1">
                    <mxGeometry x="250" y="-10" width="198.75" height="60" as="geometry"/>
                </mxCell>
                <mxCell id="14h0KyfkH0kQeiESOkpt-56" value="Message parser" style="rounded=1;whiteSpace=wrap;html=1;" parent="1" vertex="1">
                    <mxGeometry x="461.25" y="-10" width="168.75" height="60" as="geometry"/>
                </mxCell>
                <mxCell id="NEsWuC7n4RuJH0t8HrFY-1" value="Middleware may come from us or vendor&lt;div&gt;&lt;br&gt;&lt;/div&gt;&lt;div&gt;From us: we are using Cmake and each component is a library.&lt;/div&gt;&lt;div&gt;&lt;br&gt;&lt;/div&gt;&lt;div&gt;From vendor: propably a bunch of source and header files.&lt;/div&gt;&lt;div&gt;&lt;br&gt;&lt;/div&gt;&lt;div&gt;Need to consider this point when design&lt;/div&gt;&lt;div&gt;&lt;br&gt;&lt;/div&gt;" style="shape=note2;boundedLbl=1;whiteSpace=wrap;html=1;size=25;verticalAlign=top;align=center;" parent="1" vertex="1">
                    <mxGeometry x="-810" y="200" width="260" height="190" as="geometry"/>
                </mxCell>
                <mxCell id="NEsWuC7n4RuJH0t8HrFY-2" value="" style="endArrow=classic;html=1;rounded=0;exitX=0;exitY=0;exitDx=260;exitDy=107.5;exitPerimeter=0;" parent="1" source="NEsWuC7n4RuJH0t8HrFY-1" target="14h0KyfkH0kQeiESOkpt-49" edge="1">
                    <mxGeometry width="50" height="50" relative="1" as="geometry">
                        <mxPoint x="-310" y="240" as="sourcePoint"/>
                        <mxPoint x="-260" y="190" as="targetPoint"/>
                    </mxGeometry>
                </mxCell>
                <mxCell id="NEsWuC7n4RuJH0t8HrFY-3" value="Interface" style="rounded=1;whiteSpace=wrap;html=1;" parent="1" vertex="1">
                    <mxGeometry x="38.75" y="520" width="760" height="40" as="geometry"/>
                </mxCell>
                <mxCell id="NEsWuC7n4RuJH0t8HrFY-4" value="Implement" style="endArrow=block;dashed=1;endFill=0;endSize=12;html=1;rounded=0;exitX=0.5;exitY=0;exitDx=0;exitDy=0;entryX=0.076;entryY=1;entryDx=0;entryDy=0;entryPerimeter=0;" parent="1" source="14h0KyfkH0kQeiESOkpt-2" target="NEsWuC7n4RuJH0t8HrFY-3" edge="1">
                    <mxGeometry width="160" relative="1" as="geometry">
                        <mxPoint x="250" y="460" as="sourcePoint"/>
                        <mxPoint x="410" y="460" as="targetPoint"/>
                    </mxGeometry>
                </mxCell>
                <mxCell id="NEsWuC7n4RuJH0t8HrFY-5" value="Implement" style="endArrow=block;dashed=1;endFill=0;endSize=12;html=1;rounded=0;exitX=0.5;exitY=0;exitDx=0;exitDy=0;entryX=0.292;entryY=0.992;entryDx=0;entryDy=0;entryPerimeter=0;" parent="1" target="NEsWuC7n4RuJH0t8HrFY-3" edge="1">
                    <mxGeometry width="160" relative="1" as="geometry">
                        <mxPoint x="259.5" y="680" as="sourcePoint"/>
                        <mxPoint x="260.5" y="610" as="targetPoint"/>
                    </mxGeometry>
                </mxCell>
                <mxCell id="NEsWuC7n4RuJH0t8HrFY-6" value="Implement" style="endArrow=block;dashed=1;endFill=0;endSize=12;html=1;rounded=0;exitX=0.5;exitY=0;exitDx=0;exitDy=0;entryX=0.5;entryY=1;entryDx=0;entryDy=0;" parent="1" target="NEsWuC7n4RuJH0t8HrFY-3" edge="1">
                    <mxGeometry width="160" relative="1" as="geometry">
                        <mxPoint x="419.5" y="680" as="sourcePoint"/>
                        <mxPoint x="420.5" y="610" as="targetPoint"/>
                    </mxGeometry>
                </mxCell>
                <mxCell id="NEsWuC7n4RuJH0t8HrFY-7" value="Implement" style="endArrow=block;dashed=1;endFill=0;endSize=12;html=1;rounded=0;exitX=0.5;exitY=0;exitDx=0;exitDy=0;entryX=0.712;entryY=0.992;entryDx=0;entryDy=0;entryPerimeter=0;" parent="1" target="NEsWuC7n4RuJH0t8HrFY-3" edge="1">
                    <mxGeometry width="160" relative="1" as="geometry">
                        <mxPoint x="579.5" y="680" as="sourcePoint"/>
                        <mxPoint x="580.5" y="610" as="targetPoint"/>
                    </mxGeometry>
                </mxCell>
                <mxCell id="NEsWuC7n4RuJH0t8HrFY-8" value="Implement" style="endArrow=block;dashed=1;endFill=0;endSize=12;html=1;rounded=0;exitX=0.5;exitY=0;exitDx=0;exitDy=0;entryX=0.908;entryY=0.977;entryDx=0;entryDy=0;entryPerimeter=0;" parent="1" target="NEsWuC7n4RuJH0t8HrFY-3" edge="1">
                    <mxGeometry width="160" relative="1" as="geometry">
                        <mxPoint x="729.5" y="680" as="sourcePoint"/>
                        <mxPoint x="730.5" y="610" as="targetPoint"/>
                    </mxGeometry>
                </mxCell>
                <mxCell id="lG4EnGGrjAgW0stw462G-1" value="Interface" style="rounded=1;whiteSpace=wrap;html=1;" parent="1" vertex="1">
                    <mxGeometry x="-390" y="140" width="260" height="40" as="geometry"/>
                </mxCell>
                <mxCell id="lG4EnGGrjAgW0stw462G-2" value="Use" style="endArrow=open;endSize=12;dashed=1;html=1;rounded=0;exitX=0;exitY=0.5;exitDx=0;exitDy=0;entryX=0;entryY=0.5;entryDx=0;entryDy=0;" parent="1" source="14h0KyfkH0kQeiESOkpt-1" target="14h0KyfkH0kQeiESOkpt-2" edge="1">
                    <mxGeometry width="160" relative="1" as="geometry">
                        <mxPoint x="-160" y="470" as="sourcePoint"/>
                        <mxPoint y="470" as="targetPoint"/>
                        <Array as="points">
                            <mxPoint x="-60" y="510"/>
                            <mxPoint x="-60" y="710"/>
                        </Array>
                    </mxGeometry>
                </mxCell>
                <mxCell id="lG4EnGGrjAgW0stw462G-3" value="Implement" style="endArrow=block;dashed=1;endFill=0;endSize=12;html=1;rounded=0;exitX=0.5;exitY=0;exitDx=0;exitDy=0;entryX=0.228;entryY=0.98;entryDx=0;entryDy=0;entryPerimeter=0;" parent="1" source="14h0KyfkH0kQeiESOkpt-49" target="lG4EnGGrjAgW0stw462G-1" edge="1">
                    <mxGeometry width="160" relative="1" as="geometry">
                        <mxPoint x="-329.71" y="580" as="sourcePoint"/>
                        <mxPoint x="-330.71" y="460" as="targetPoint"/>
                    </mxGeometry>
                </mxCell>
                <mxCell id="lG4EnGGrjAgW0stw462G-4" value="Implement" style="endArrow=block;dashed=1;endFill=0;endSize=12;html=1;rounded=0;entryX=0.765;entryY=1.01;entryDx=0;entryDy=0;entryPerimeter=0;exitX=0.5;exitY=0;exitDx=0;exitDy=0;" parent="1" source="14h0KyfkH0kQeiESOkpt-48" target="lG4EnGGrjAgW0stw462G-1" edge="1">
                    <mxGeometry width="160" relative="1" as="geometry">
                        <mxPoint x="-190" y="230" as="sourcePoint"/>
                        <mxPoint x="-189.99999999999997" y="430" as="targetPoint"/>
                    </mxGeometry>
                </mxCell>
            </root>
        </mxGraphModel>
    </diagram>
    <diagram id="SAWeMJF4aq4ji-m3Dor3" name="Page-3">
        <mxGraphModel dx="299" dy="436" grid="1" gridSize="10" guides="1" tooltips="1" connect="1" arrows="1" fold="1" page="1" pageScale="1" pageWidth="850" pageHeight="1100" math="0" shadow="0">
            <root>
                <mxCell id="0"/>
                <mxCell id="1" parent="0"/>
                <mxCell id="tyRwL-RRVepuoQw1qBCf-2" value="Component" style="rounded=1;whiteSpace=wrap;html=1;" vertex="1" parent="1">
                    <mxGeometry x="200" y="180" width="120" height="60" as="geometry"/>
                </mxCell>
                <mxCell id="tyRwL-RRVepuoQw1qBCf-3" value="Changeable Component&lt;div&gt;&lt;br&gt;&lt;/div&gt;" style="rounded=1;whiteSpace=wrap;html=1;verticalAlign=middle;" vertex="1" parent="1">
                    <mxGeometry x="200" y="380" width="120" height="60" as="geometry"/>
                </mxCell>
                <mxCell id="tyRwL-RRVepuoQw1qBCf-5" value="Interface" style="rounded=0;whiteSpace=wrap;html=1;" vertex="1" parent="1">
                    <mxGeometry x="200" y="290" width="120" height="30" as="geometry"/>
                </mxCell>
                <mxCell id="tyRwL-RRVepuoQw1qBCf-7" value="" style="endArrow=block;dashed=1;endFill=0;endSize=12;html=1;exitX=0.5;exitY=0;exitDx=0;exitDy=0;entryX=0.5;entryY=1;entryDx=0;entryDy=0;" edge="1" parent="1" source="tyRwL-RRVepuoQw1qBCf-3" target="tyRwL-RRVepuoQw1qBCf-5">
                    <mxGeometry width="160" relative="1" as="geometry">
                        <mxPoint x="180" y="300" as="sourcePoint"/>
                        <mxPoint x="340" y="300" as="targetPoint"/>
                    </mxGeometry>
                </mxCell>
                <mxCell id="tyRwL-RRVepuoQw1qBCf-9" value="Implement" style="edgeLabel;html=1;align=center;verticalAlign=middle;resizable=0;points=[];" vertex="1" connectable="0" parent="tyRwL-RRVepuoQw1qBCf-7">
                    <mxGeometry x="-0.2457" y="-2" relative="1" as="geometry">
                        <mxPoint as="offset"/>
                    </mxGeometry>
                </mxCell>
                <mxCell id="tyRwL-RRVepuoQw1qBCf-8" value="Use" style="endArrow=open;endSize=12;dashed=1;html=1;exitX=0.5;exitY=1;exitDx=0;exitDy=0;" edge="1" parent="1" source="tyRwL-RRVepuoQw1qBCf-2" target="tyRwL-RRVepuoQw1qBCf-5">
                    <mxGeometry width="160" relative="1" as="geometry">
                        <mxPoint x="180" y="300" as="sourcePoint"/>
                        <mxPoint x="340" y="300" as="targetPoint"/>
                    </mxGeometry>
                </mxCell>
            </root>
        </mxGraphModel>
    </diagram>
</mxfile>